<?xml version="1.0" encoding="iso-8859-1"?>
<!-- Generator: Adobe Illustrator 16.0.0, SVG Export Plug-In . SVG Version: 6.00 Build 0)  -->
<!DOCTYPE svg PUBLIC "-//W3C//DTD SVG 1.1//EN" "http://www.w3.org/Graphics/SVG/1.1/DTD/svg11.dtd">
<svg version="1.1" id="Capa_1" xmlns="http://www.w3.org/2000/svg" xmlns:xlink="http://www.w3.org/1999/xlink" x="0px" y="0px"
	 width="954.175px" height="954.175px" viewBox="0 0 954.175 954.175" style="enable-background:new 0 0 954.175 954.175;"
	 xml:space="preserve" fill="#0078BC"> 
<g>
	<g>
		<path d="M854,747.388c-15.7-15.701-36.6-23-57.2-21.801l-55.2-55.199c22.4-28.6,40.9-60,55.2-93.801
			c21.601-51.199,32.601-105.5,32.601-161.4c0-55.9-11-110.3-32.601-161.4c-20.899-49.4-50.8-93.7-88.899-131.8
			c-38.101-38.1-82.4-68-131.801-88.9c-51.199-21.6-105.5-32.6-161.399-32.6c-55.9,0-110.3,11-161.4,32.6
			c-49.4,20.8-93.7,50.7-131.8,88.8s-68,82.4-88.9,131.8C11,304.888,0,359.188,0,415.088c0,55.899,11,110.3,32.6,161.4
			c20.9,49.4,50.8,93.699,88.9,131.801c38.1,38.1,82.4,68,131.8,88.898c51.2,21.602,105.5,32.602,161.4,32.602
			c55.899,0,110.3-11,161.399-32.602c34.2-14.5,66-33.199,94.9-56.1l55.1,55.1c-1.1,20.602,6.101,41.5,21.801,57.201l78.3,78.299
			c14.6,14.602,33.8,22,53,22s38.399-7.299,53-22c29.3-29.299,29.3-76.799,0-106.1L854,747.388z M670.2,598.888
			c-9.9,13.6-20.9,26.6-33,38.699c-11.8,11.801-24.4,22.5-37.601,32.1c-53.399,39-117.6,60-185,60
			c-84.1,0-163.1-32.699-222.5-92.199c-59.4-59.4-92.2-138.5-92.2-222.5c0-84,32.7-163.1,92.2-222.5
			c59.4-59.4,138.5-92.2,222.5-92.2s163.101,32.7,222.5,92.2c59.4,59.4,92.2,138.5,92.2,222.5
			C729.4,481.988,708.7,545.687,670.2,598.888z"/>
		<g>
			<path d="M386,193.688h57.5c18,0,32.9,14.2,35.7,32.6h50.3c-3.2-46.1-40.5-82.6-86-82.6H386c-45.5,0-82.8,36.5-86,82.6h50.3
				C353,207.788,368,193.688,386,193.688z"/>
			<path d="M529.7,251.288h-50h-130h-50h-81.5c-15.2,0-32.3,14.5-41.6,23.6c-5.8,7-6.9,11.8-6.4,17.2c3.7,35.9,27.6,69.7,68.1,96.3
				c35.9,23.5,81,39,130.2,44.9c15,1.8,30.5,2.8,46.1,2.8c28.9,0,57.101-3.2,83.5-9.3c34.7-8,66.301-21,92.9-38.4
				c40.5-26.6,64.3-60.5,68.1-96.3c0.601-5.5-2.399-13.4-6.399-17.2c-9.3-9.1-26.4-23.6-41.601-23.6H529.7L529.7,251.288z"/>
			<path d="M613.1,421.888c-24.199,15.9-52,28.6-82.199,37.6c-36.101,10.9-75.5,16.601-116.2,16.601c-2.9,0-5.9,0-8.8-0.101
				c-71.4-1.399-138.4-20.5-189.601-54.1c-21.6-14.2-39.5-30.4-53.5-48.3c-3.4-4.4-5.9-3.6-5.9,1.899v139.401
				c0,35.299,27.4,64,61.2,64h290.5h102.5c11.101,0,21.5-3.1,30.4-8.5c18.4-11,30.8-31.701,30.8-55.5v-139.3
				c0-5.5-2.5-6.3-5.899-1.9C652.6,391.487,634.7,407.688,613.1,421.888z"/>
		</g>
	</g>
</g>
<g>
</g>
<g>
</g>
<g>
</g>
<g>
</g>
<g>
</g>
<g>
</g>
<g>
</g>
<g>
</g>
<g>
</g>
<g>
</g>
<g>
</g>
<g>
</g>
<g>
</g>
<g>
</g>
<g>
</g>
</svg>
