<?xml version="1.0" encoding="iso-8859-1"?>
<!-- Generator: Adobe Illustrator 16.0.0, SVG Export Plug-In . SVG Version: 6.00 Build 0)  -->
<!DOCTYPE svg PUBLIC "-//W3C//DTD SVG 1.1//EN" "http://www.w3.org/Graphics/SVG/1.1/DTD/svg11.dtd">
<svg version="1.1" id="Capa_1" xmlns="http://www.w3.org/2000/svg" xmlns:xlink="http://www.w3.org/1999/xlink" x="0px" y="0px"
	 width="978.196px" height="978.196px" viewBox="0 0 978.196 978.196" style="enable-background:new 0 0 978.196 978.196;"
	 xml:space="preserve">
<g>
	<g>
		<path d="M645.685,510.172c0-23.297-17.813-34.26-51.389-34.26h-33.573v71.944h33.573
			C627.185,547.855,645.685,535.521,645.685,510.172z"/>
		<path d="M377.09,548.197c35.286,0,57.896-32.203,57.896-82.563c0-50.02-22.61-80.509-57.896-80.509
			c-35.287,0-57.897,30.49-57.897,80.509C319.193,515.994,341.804,548.197,377.09,548.197z"/>
		<path d="M633.694,414.589c0-20.557-14.73-29.121-43.852-29.121h-29.12v62.009h28.435
			C620.332,447.477,633.694,435.486,633.694,414.589z"/>
		<g>
			<path d="M35.02,187.383v730.813c0,33.137,26.863,60,60,60h535.36l0,0V736.609c0-39.324,31.878-71.201,71.202-71.201h241.585
				V187.383c0-33.137-26.863-60-60-60H752.916c-18.179,27.253-49.196,45.245-84.343,45.245c-16.844,0-32.735-4.137-46.727-11.44
				l-97.651,64.86c-6.79,4.51-14.864-3.566-10.354-10.355l58.654-88.309H95.02C61.882,127.383,35.02,154.246,35.02,187.383z
				 M790.603,486.532l-30.833-13.359c-21.926-9.25-45.223-26.724-45.223-59.611c0-35.629,31.519-63.036,75.369-63.036
				c26.036,0,51.39,10.963,68.859,28.435l-20.212,25.352c-14.39-11.99-29.463-19.185-48.646-19.185
				c-21.24,0-35.286,9.935-35.286,26.379c0,17.473,17.129,23.98,35.629,31.518l30.49,12.676
				c26.38,11.307,45.223,28.093,45.223,60.64c0,36.314-30.148,66.463-80.509,66.463c-30.148,0-59.611-11.991-80.854-32.891
				l23.296-27.064c16.104,15.074,37.688,25.353,58.24,25.353c25.354,0,39.057-11.305,39.057-28.775
				C825.204,500.922,810.815,495.098,790.603,486.532z M520.981,354.634h71.604c46.25,0,80.166,14.047,80.166,55.157
				c0,21.241-12.333,41.797-38.37,48.648v1.37c32.204,5.48,50.018,22.953,50.018,53.101c0,44.879-36.657,65.777-85.99,65.777
				h-77.426L520.981,354.634L520.981,354.634z M377.09,350.524c58.583,0,99.009,42.823,99.009,115.11
				c0,72.629-40.426,117.167-99.009,117.167c-58.24,0-98.666-44.537-98.666-117.167C278.424,393.347,318.851,350.524,377.09,350.524
				z M128.029,524.559c8.907,16.445,21.24,23.64,34.943,23.64c20.898,0,31.519-11.306,31.519-43.166V354.634h39.74v153.823
				c0,40.77-19.87,74.344-66.805,74.344c-31.176,0-52.759-13.02-66.806-38.028L128.029,524.559z"/>
			<path d="M701.582,706.609c-16.567,0-30,13.432-30,30v222.229v19.357l271.595-271.586h-15.357H701.582L701.582,706.609z"/>
			<path d="M624.535,127.383c8.105,6.376,17.622,11.027,28.013,13.414c5.153,1.184,10.514,1.831,16.025,1.831
				c16.628,0,31.911-5.706,44.039-15.245c16.603-13.057,27.275-33.31,27.275-56.069C739.888,31.928,707.959,0,668.573,0
				c-39.385,0-71.313,31.928-71.313,71.314c0,5.514,0.646,10.873,1.831,16.027C602.794,103.463,611.955,117.49,624.535,127.383z"/>
		</g>
	</g>
</g>
<g>
</g>
<g>
</g>
<g>
</g>
<g>
</g>
<g>
</g>
<g>
</g>
<g>
</g>
<g>
</g>
<g>
</g>
<g>
</g>
<g>
</g>
<g>
</g>
<g>
</g>
<g>
</g>
<g>
</g>
</svg>
